<?xml version="1.0" standalone="no"?>
<!DOCTYPE svg PUBLIC "-//W3C//DTD SVG 20010904//EN"
 "http://www.w3.org/TR/2001/REC-SVG-20010904/DTD/svg10.dtd">
<svg version="1.0" xmlns="http://www.w3.org/2000/svg"
 width="6000.000000pt" height="6000.000000pt" viewBox="0 0 6000.000000 6000.000000"
 preserveAspectRatio="xMidYMid meet">
<metadata>
Created by potrace 1.16, written by Peter Selinger 2001-2019
</metadata>
<g transform="translate(0.000000,6000.000000) scale(0.100000,-0.100000)"
fill="#000000" stroke="none">
<path d="M26585 56009 c-198 -26 -396 -127 -595 -301 -214 -188 -462 -520
-870 -1163 -394 -622 -764 -1236 -1025 -1700 -34 -60 -71 -126 -82 -145 -48
-86 -241 -442 -335 -620 l-103 -195 -310 -11 c-170 -6 -451 -17 -623 -24 -172
-7 -315 -10 -318 -8 -2 3 31 27 73 55 411 262 729 704 829 1153 70 317 51 673
-53 995 -98 302 -247 554 -458 774 -240 250 -508 407 -860 505 -187 52 -270
61 -550 61 -280 -1 -372 -12 -595 -71 -456 -121 -898 -376 -1275 -736 -348
-331 -668 -789 -880 -1258 -31 -69 -57 -126 -59 -127 -1 -1 -35 9 -76 23 -132
44 -243 57 -460 51 -133 -4 -232 -12 -313 -27 -1296 -231 -2072 -1522 -1902
-3165 54 -521 151 -943 310 -1346 31 -79 57 -152 58 -161 1 -10 -40 -54 -103
-108 -301 -263 -701 -663 -981 -980 -1340 -1519 -2267 -3259 -2719 -5100 -70
-288 -86 -356 -125 -560 -19 -102 -39 -207 -45 -235 -9 -48 -48 -306 -69 -465
-47 -340 -80 -800 -88 -1230 -22 -1193 160 -2372 543 -3525 384 -1158 986
-2273 1729 -3203 390 -488 886 -996 1335 -1368 355 -293 773 -593 1115 -797
l47 -28 -81 -84 c-173 -180 -312 -449 -365 -707 -74 -357 -10 -742 174 -1054
58 -99 135 -203 156 -211 10 -4 4 -29 -25 -111 -99 -277 -143 -540 -142 -852
1 -1036 607 -1966 1691 -2595 696 -405 1656 -700 2600 -799 312 -33 457 -40
820 -40 687 1 1285 75 1950 243 374 94 823 252 1180 415 79 36 145 66 146 66
2 0 54 -75 115 -167 283 -420 617 -848 984 -1263 176 -198 734 -754 935 -932
1474 -1303 3215 -2232 5195 -2772 571 -156 1340 -311 1854 -373 l64 -8 -54
-29 c-81 -45 -333 -215 -429 -291 -629 -495 -1009 -1138 -1090 -1844 -23 -196
-4 -519 41 -701 135 -545 492 -1005 961 -1240 66 -33 152 -69 192 -81 l73 -21
29 -97 c143 -489 483 -943 982 -1314 531 -394 1246 -664 2032 -766 764 -100
1558 -46 2345 159 1467 383 2840 1238 4185 2607 345 351 673 717 955 1067
l120 149 17 -99 c10 -54 27 -153 39 -219 111 -645 307 -1315 549 -1885 33 -80
110 -244 170 -365 702 -1426 1813 -2456 3160 -2932 307 -108 718 -206 1045
-248 28 -4 60 -8 72 -10 12 -2 57 -7 100 -10 43 -4 80 -9 83 -10 19 -11 306
-20 625 -19 272 0 415 5 540 18 147 14 407 47 485 61 880 151 1509 346 2198
681 672 326 1211 709 1703 1210 259 265 436 485 641 799 441 675 696 1369 769
2095 14 136 18 603 7 740 -88 1057 -581 2031 -1333 2633 -474 380 -989 598
-1615 684 -176 24 -607 24 -775 -1 -252 -36 -446 -85 -644 -162 -64 -25 -124
-48 -133 -51 -17 -5 -18 13 -18 274 0 154 -5 338 -10 409 -74 923 -364 1778
-868 2549 -810 1241 -2105 2055 -3616 2275 -250 36 -370 44 -646 43 -223 0
-305 -4 -433 -22 -87 -11 -160 -21 -162 -21 -2 0 -34 91 -70 203 -149 448
-319 856 -541 1297 -111 219 -168 328 -227 428 -20 35 -37 65 -37 66 0 6 -193
326 -243 404 -26 40 -47 77 -47 83 0 6 22 37 48 68 203 236 417 588 552 906
106 250 178 495 229 783 10 57 21 105 23 108 3 2 75 -4 159 -15 85 -11 190
-23 234 -27 44 -3 82 -8 85 -9 3 -2 75 -6 160 -9 85 -4 187 -9 225 -12 167
-12 676 28 900 71 653 128 1163 389 1580 809 340 343 553 736 637 1171 27 146
35 464 13 610 -39 272 -112 497 -237 734 -217 412 -600 816 -1087 1146 l-124
84 44 19 c71 31 309 148 374 185 347 195 594 361 880 591 307 248 680 620 946
946 854 1045 1282 2149 1221 3152 -31 505 -145 935 -376 1413 -392 809 -1051
1472 -1875 1885 -764 382 -1654 523 -2584 409 l-173 -21 -54 32 c-330 195
-730 327 -1170 387 -233 31 -758 25 -990 -13 -443 -71 -822 -189 -1205 -374
-1097 -532 -2000 -1556 -2582 -2930 -205 -485 -340 -902 -378 -1170 -4 -25 -7
-46 -8 -47 -1 -1 -67 8 -147 19 -185 25 -629 36 -819 19 -242 -22 -584 -90
-761 -152 -30 -10 -59 -19 -65 -19 -8 0 -16 77 -24 236 -19 379 -67 846 -117
1144 -2 14 -13 81 -25 150 -108 655 -320 1406 -554 1958 -297 704 -641 1282
-1084 1822 -396 482 -905 944 -1362 1235 -132 84 -419 236 -511 270 -40 15
-47 21 -43 39 48 221 52 543 10 806 -57 349 -221 716 -442 990 -34 41 -75 88
-92 104 l-30 29 67 50 c195 147 458 405 798 786 115 129 274 307 353 395 275
308 450 528 593 746 117 178 187 343 210 498 6 39 15 72 20 72 6 0 35 -8 66
-17 91 -28 340 -25 452 5 321 87 557 294 658 577 35 96 45 165 45 295 0 108
-4 152 -22 220 -86 326 -341 587 -668 686 -119 36 -349 44 -458 15 -360 -94
-612 -376 -679 -761 -3 -14 -5 -69 -5 -124 l-1 -98 -27 6 c-16 3 -79 15 -140
26 -379 65 -965 10 -1435 -134 -27 -8 -48 -11 -48 -7 0 5 20 69 45 142 52 158
83 270 130 475 43 190 59 321 53 440 l-5 94 86 0 c422 0 790 261 911 645 31
98 39 327 16 438 -76 367 -376 662 -756 743 -100 21 -280 18 -381 -7 -252 -62
-474 -244 -588 -482 -66 -136 -83 -210 -88 -389 -7 -206 14 -309 98 -471 l30
-57 -26 -10 c-15 -6 -33 -10 -42 -10 -38 0 -209 -67 -336 -132 -206 -106 -691
-429 -1031 -687 -98 -75 -187 -142 -197 -150 -18 -13 -19 -11 -19 40 0 261
-73 1134 -120 1439 -33 212 -80 374 -147 505 l-20 39 73 42 c204 116 344 284
412 494 32 96 42 160 43 273 2 245 -89 463 -270 650 -139 144 -310 238 -504
278 -393 80 -782 -113 -963 -476 -174 -352 -123 -765 133 -1060 l43 -50 -74
-75 c-241 -244 -504 -768 -842 -1674 -111 -296 -231 -684 -289 -933 -15 -62
-30 -113 -35 -113 -4 0 -72 27 -151 61 -552 233 -1200 433 -1842 569 -126 27
-230 50 -232 52 -2 2 7 89 21 193 49 382 114 959 149 1305 94 953 108 1146
109 1505 1 258 -2 326 -17 405 -107 569 -476 948 -947 974 -47 3 -116 0 -155
-5z m213 -528 c113 -39 211 -136 282 -279 81 -161 118 -375 107 -613 -12 -249
-78 -1011 -137 -1576 -22 -210 -40 -387 -40 -394 0 -17 -180 -6 -340 22 -227
38 -459 122 -651 235 -96 56 -261 176 -329 240 l-46 43 -43 -72 c-24 -40 -80
-135 -124 -211 l-80 -139 49 -44 c375 -334 862 -545 1355 -585 l145 -12 -38
-300 c-50 -399 -124 -932 -203 -1470 -36 -242 -65 -441 -65 -444 0 -11 -433 8
-524 22 -551 89 -1052 328 -1439 686 -43 40 -80 70 -83 68 -2 -3 -23 -86 -45
-184 -46 -209 -53 -227 -97 -275 l-33 -37 75 -65 c291 -254 635 -453 991 -574
191 -65 352 -102 650 -148 17 -3 71 -7 120 -10 50 -2 139 -7 198 -11 l108 -6
-5 -27 c-3 -14 -24 -145 -46 -291 -66 -431 -100 -634 -110 -657 -6 -15 -17
-22 -32 -21 -13 1 -70 -1 -128 -5 -273 -17 -585 -14 -875 8 -657 52 -1348 229
-1985 510 -154 68 -632 316 -660 342 -2 2 0 10 5 17 50 69 191 285 220 336 69
126 193 377 295 600 57 124 192 403 301 620 176 354 198 392 207 370 50 -129
114 -270 155 -340 56 -97 134 -217 147 -225 4 -3 18 37 30 87 11 51 44 179 71
284 l51 191 -132 201 -131 200 27 54 c169 333 970 1729 993 1728 3 0 28 -41
56 -90 27 -50 54 -89 60 -87 5 2 15 12 20 23 15 28 48 82 142 230 46 73 83
136 83 141 0 5 -27 46 -60 92 -54 73 -59 84 -49 104 38 70 568 875 747 1134
62 89 182 249 211 283 12 14 46 52 74 84 100 115 256 220 363 245 63 15 135
12 192 -8z m-5392 -591 c197 -15 380 -62 552 -141 153 -70 348 -213 443 -324
19 -22 39 -44 46 -50 6 -5 37 -46 68 -90 108 -152 199 -360 241 -555 29 -133
27 -420 -4 -560 -43 -190 -109 -346 -217 -510 -118 -179 -245 -305 -427 -426
-124 -83 -249 -142 -424 -200 -180 -61 -203 -61 -327 -2 -143 69 -259 151
-373 263 -112 111 -166 186 -224 308 -57 120 -74 193 -74 322 1 93 5 122 28
190 37 109 91 197 173 280 188 193 427 215 662 60 114 -75 181 -173 210 -307
9 -44 20 -64 47 -87 65 -57 167 -34 200 45 21 50 18 196 -6 288 -40 159 -159
328 -308 438 -72 54 -200 113 -297 139 -102 26 -270 29 -368 5 -195 -47 -322
-120 -477 -276 -159 -159 -238 -298 -303 -530 -18 -64 -21 -103 -21 -270 0
-179 2 -203 26 -292 98 -362 332 -679 663 -900 202 -135 403 -223 659 -288
368 -93 709 -114 1396 -86 179 8 326 13 328 11 1 -1 -43 -96 -99 -211 -119
-245 -266 -567 -374 -819 -211 -494 -265 -646 -331 -943 -4 -22 -10 -19 -117
54 -62 43 -123 86 -137 96 -14 10 -65 49 -115 86 -49 37 -99 75 -110 84 -11 9
-54 43 -95 76 -209 166 -540 479 -711 672 -46 52 -105 117 -130 145 -67 74
-204 244 -305 380 -396 529 -718 1124 -944 1742 -104 284 -340 1088 -340 1158
0 28 135 185 297 343 419 411 929 657 1423 685 30 2 60 4 65 5 6 1 65 -3 131
-8z m10222 -126 c254 -52 376 -219 308 -422 -23 -67 -104 -188 -150 -225 -173
-135 -416 -122 -558 30 -114 123 -160 309 -108 431 66 153 282 232 508 186z
m-12389 -1364 c31 -258 95 -538 196 -847 172 -530 364 -951 653 -1433 715
-1193 1800 -2168 3017 -2714 1289 -579 2760 -739 4180 -455 1278 255 2420 830
3365 1692 l105 96 30 -19 c51 -32 274 -195 386 -282 336 -261 711 -622 976
-938 120 -143 283 -355 283 -367 0 -4 -28 -19 -63 -32 -233 -89 -470 -231
-754 -454 -23 -19 -24 -18 -79 18 -316 210 -770 260 -1399 154 -66 -11 -194
-36 -285 -55 -164 -35 -1080 -262 -1320 -328 -404 -109 -1158 -303 -1470 -376
-1264 -298 -2227 -388 -3145 -294 -1336 136 -2697 692 -3802 1551 -215 167
-418 349 -752 675 l-331 323 -47 110 c-155 368 -279 828 -327 1222 -54 434
-44 934 25 1348 85 512 236 947 487 1402 31 56 57 101 58 100 1 -1 7 -45 13
-97z m12148 29 c58 -22 102 -86 145 -209 94 -273 166 -1120 181 -2147 l2 -161
30 -44 c43 -60 121 -99 201 -100 100 -1 146 21 269 128 384 335 743 599 1224
899 241 150 348 207 454 240 87 28 117 31 135 13 18 -18 15 -55 -17 -212 -87
-422 -192 -729 -376 -1105 -78 -160 -95 -203 -95 -240 0 -71 16 -114 62 -166
56 -63 124 -95 205 -95 54 0 73 6 150 46 349 181 653 281 1038 340 157 24 606
31 723 10 278 -48 376 -154 327 -351 -35 -140 -97 -237 -348 -542 -375 -458
-645 -758 -1082 -1203 -275 -279 -425 -444 -437 -480 -2 -8 -45 8 -119 44
-209 101 -408 154 -664 176 -115 10 -316 7 -385 -6 -21 -3 -29 2 -46 33 -28
49 -214 300 -318 428 -629 779 -1479 1458 -2453 1962 l-182 94 38 107 c149
414 346 918 478 1222 83 191 405 861 466 970 121 217 254 352 354 359 6 1 24
-4 40 -10z m3394 -39 c173 -47 289 -167 289 -299 0 -94 -71 -242 -156 -324
-21 -21 -68 -52 -104 -70 -61 -30 -71 -32 -175 -32 -103 0 -114 2 -178 32
-117 56 -196 158 -233 305 -20 78 -14 168 14 224 78 153 317 225 543 164z
m-16606 -669 c104 -21 139 -32 136 -42 -121 -471 -163 -705 -191 -1058 -13
-172 -13 -575 0 -751 58 -774 284 -1532 670 -2245 368 -680 881 -1297 1525
-1834 180 -151 470 -360 700 -506 33 -21 76 -48 95 -60 43 -28 206 -122 280
-162 854 -467 1760 -769 2810 -938 93 -15 386 -55 440 -60 36 -3 79 -7 95 -10
17 -2 67 -6 110 -10 44 -3 94 -8 110 -10 27 -3 72 -6 290 -20 315 -19 1015
-14 1360 11 230 16 488 39 545 49 14 2 54 7 90 10 36 3 90 10 120 15 30 5 78
12 105 15 107 13 318 47 500 81 105 20 201 38 215 40 14 3 117 25 229 50 626
139 1289 342 1855 568 77 30 141 54 143 53 1 -2 -2 -19 -7 -38 -15 -52 -12
-99 10 -144 51 -106 211 -114 288 -15 10 14 122 178 249 365 241 358 322 472
436 620 183 235 394 457 573 601 599 482 1334 617 1874 344 221 -111 442 -329
573 -563 147 -262 224 -610 197 -891 -66 -717 -494 -1344 -1215 -1781 -227
-138 -554 -286 -895 -405 -229 -79 -245 -87 -282 -129 -44 -50 -58 -91 -58
-168 1 -111 52 -196 145 -239 62 -29 124 -30 224 -4 41 10 78 17 82 15 4 -3
14 -44 23 -92 9 -49 18 -99 21 -113 3 -14 7 -36 9 -50 3 -14 8 -52 12 -85 3
-33 8 -71 10 -85 27 -194 26 -672 -2 -903 -29 -241 -89 -542 -154 -777 -80
-288 -259 -781 -379 -1043 -17 -37 -31 -69 -31 -72 0 -2 -18 -43 -41 -92 -22
-48 -66 -142 -96 -208 -30 -66 -148 -307 -260 -535 -519 -1050 -595 -1208
-750 -1575 -227 -535 -404 -1116 -469 -1535 -3 -25 -8 -54 -10 -65 -6 -42 -24
-182 -30 -240 -3 -33 -7 -75 -9 -93 -13 -105 -19 -291 -19 -542 -1 -249 9
-524 19 -540 1 -3 6 -50 10 -105 4 -55 8 -102 10 -105 2 -3 6 -32 10 -65 3
-33 7 -67 9 -75 1 -8 6 -37 10 -65 4 -27 14 -84 21 -125 8 -41 16 -91 19 -111
6 -43 75 -337 109 -469 177 -678 494 -1376 900 -1985 797 -1195 1913 -2045
3316 -2527 228 -77 635 -190 801 -221 14 -3 88 -17 165 -31 77 -14 163 -30
190 -36 46 -8 67 -12 158 -25 126 -18 449 -49 612 -60 73 -4 804 -5 860 -1 22
2 84 7 137 10 54 4 112 9 130 11 18 2 60 6 93 9 53 6 113 13 260 32 396 51
866 162 1305 308 211 70 232 78 420 154 246 99 735 334 815 392 6 4 30 19 55
32 532 295 1174 800 1603 1263 775 834 1267 1767 1466 2775 18 91 28 151 55
340 55 375 44 992 -25 1420 -174 1069 -689 2016 -1429 2624 -52 43 -99 82
-104 86 -9 9 38 129 149 390 540 1260 1214 2225 2027 2902 859 716 1908 1129
2984 1177 705 31 1336 -102 1943 -409 794 -401 1423 -1092 1739 -1910 75 -195
161 -521 177 -675 3 -33 8 -67 10 -75 3 -8 9 -86 14 -173 9 -140 2 -379 -13
-467 -2 -14 -7 -52 -11 -85 -43 -389 -226 -903 -483 -1365 -279 -500 -590
-909 -1006 -1326 -426 -425 -823 -723 -1307 -977 -212 -112 -520 -242 -724
-307 -129 -40 -160 -53 -196 -79 -90 -63 -132 -203 -95 -309 28 -78 50 -96
240 -195 453 -236 740 -441 1022 -728 191 -196 311 -360 404 -554 243 -505
218 -1038 -72 -1502 -188 -303 -482 -565 -851 -758 -414 -217 -864 -318 -1417
-320 -113 0 -323 10 -425 20 -22 2 -69 7 -105 10 -101 10 -330 43 -495 72
-185 32 -234 33 -303 3 -94 -41 -146 -125 -157 -255 -6 -73 -15 -165 -21 -225
-22 -196 -116 -539 -203 -741 -170 -397 -369 -695 -666 -995 -286 -288 -581
-487 -948 -638 -425 -176 -993 -259 -1402 -206 -33 5 -85 11 -115 14 -84 10
-162 24 -305 57 -390 91 -744 250 -1065 479 -140 99 -170 112 -256 112 -61 0
-81 -4 -125 -28 -89 -49 -136 -145 -126 -260 7 -88 34 -131 131 -201 551 -405
1156 -633 1851 -698 71 -7 528 -7 600 0 453 42 802 135 1178 313 213 101 449
248 637 397 52 41 97 75 100 75 3 0 20 -26 38 -58 18 -31 67 -113 108 -182
596 -1000 1013 -2141 1163 -3180 12 -80 23 -159 26 -176 2 -16 7 -58 10 -91 4
-34 8 -70 10 -80 1 -10 6 -56 10 -103 3 -47 8 -105 10 -130 26 -288 26 -773 1
-1095 -11 -139 -35 -349 -51 -455 -95 -630 -255 -1220 -490 -1820 -163 -413
-385 -882 -575 -1215 -13 -22 -49 -85 -80 -140 -644 -1141 -1713 -2428 -2777
-3341 -202 -174 -232 -198 -413 -339 -749 -581 -1527 -1012 -2305 -1278 -685
-235 -1266 -333 -1965 -331 -351 0 -517 13 -800 60 -1113 185 -1987 734 -2335
1467 -95 199 -143 396 -152 623 -33 823 506 1604 1432 2074 83 42 204 98 270
124 147 59 442 157 589 196 146 39 192 68 233 149 40 76 43 145 13 242 -77
253 -138 562 -177 894 -13 114 -17 234 -18 495 0 350 6 441 46 725 128 900
488 1741 1040 2430 132 165 149 197 149 285 0 151 -119 273 -265 273 -106 0
-148 -34 -329 -266 -563 -724 -944 -1603 -1095 -2527 -45 -273 -61 -447 -68
-728 -5 -218 -8 -242 -22 -236 -43 18 -109 22 -386 28 -554 10 -1164 61 -1700
141 -88 13 -180 27 -205 30 -25 4 -121 20 -215 36 -993 171 -2022 472 -2928
858 -1890 804 -3514 2042 -4718 3596 -209 269 -514 708 -697 1000 -112 180
-300 496 -422 710 -273 479 -442 755 -471 771 -66 34 -155 8 -193 -57 -15 -25
-18 -43 -13 -93 13 -131 169 -618 279 -866 18 -41 88 -185 156 -319 67 -134
121 -245 120 -246 -9 -7 -343 -141 -443 -178 -517 -191 -1183 -357 -1650 -411
-22 -3 -69 -8 -105 -12 -36 -4 -69 -8 -75 -9 -19 -2 -171 -17 -215 -21 -107
-9 -379 -19 -540 -19 -1169 0 -2445 330 -3249 840 -726 460 -1180 1088 -1298
1795 -24 144 -24 456 0 595 71 419 257 789 552 1103 225 238 464 381 973 582
203 81 236 91 260 82 77 -30 409 -130 627 -188 366 -98 935 -215 1231 -253
344 -44 478 -61 534 -66 36 -3 81 -8 100 -10 19 -2 78 -7 130 -11 52 -4 104
-8 115 -9 22 -2 245 -14 375 -20 83 -3 757 -3 875 0 59 2 263 13 380 20 184
12 482 41 667 66 43 5 92 12 110 14 18 3 70 9 115 15 309 39 884 150 1270 246
1365 336 2664 861 3948 1592 262 149 307 187 325 276 19 93 -12 186 -87 258
-51 50 -99 68 -178 68 -75 0 -71 2 -306 -133 -281 -161 -573 -315 -884 -468
-257 -125 -373 -179 -620 -290 -564 -250 -1292 -509 -1950 -692 -271 -76 -723
-180 -1090 -251 -104 -21 -485 -81 -600 -96 -49 -6 -106 -13 -125 -16 -84 -11
-108 -14 -165 -19 -33 -3 -78 -7 -100 -10 -22 -2 -67 -7 -100 -10 -33 -3 -73
-7 -90 -10 -16 -2 -79 -7 -140 -10 -60 -4 -132 -9 -160 -10 -150 -11 -460 -20
-675 -20 -243 0 -642 12 -690 20 -14 2 -65 7 -115 10 -49 3 -110 7 -135 10
-25 2 -76 7 -115 10 -38 4 -81 8 -95 10 -14 2 -52 6 -85 10 -493 51 -1241 196
-1700 330 -110 32 -479 147 -499 155 -11 5 -88 33 -171 61 -147 51 -492 187
-630 249 -38 17 -97 43 -130 58 -81 36 -493 242 -580 290 -65 36 -95 52 -200
112 -205 116 -521 321 -755 489 -957 689 -1842 1659 -2452 2686 -196 330 -217
368 -379 689 -317 628 -552 1242 -740 1936 -27 100 -80 309 -86 340 -2 13 -12
60 -23 105 -45 195 -130 682 -154 880 -2 22 -9 76 -15 120 -5 44 -13 112 -16
150 -3 39 -8 84 -10 100 -5 31 -12 133 -29 425 -14 229 -17 553 -7 810 10 253
44 731 55 785 3 11 8 47 11 80 5 53 20 165 30 235 2 14 7 45 10 70 16 118 58
368 90 528 398 1991 1360 3868 2826 5513 428 481 836 880 1427 1398 153 134
228 206 238 230 38 91 -9 201 -108 252 -45 23 -127 25 -169 4 -37 -20 -235
-159 -375 -265 -59 -44 -110 -80 -114 -80 -4 0 -17 60 -29 133 -21 119 -41
228 -101 542 -10 55 -21 114 -24 130 -2 17 -11 73 -20 125 -128 783 -52 1486
220 2022 295 580 770 929 1344 987 102 11 204 3 355 -28z m18801 -1202 c78
-14 190 -68 238 -115 99 -96 112 -219 37 -369 -53 -107 -118 -175 -208 -218
-64 -30 -75 -32 -178 -32 -104 0 -114 2 -175 32 -118 58 -203 168 -235 304
-20 86 -19 129 5 196 57 161 273 246 516 202z m-9395 -463 c646 -140 1223
-321 1790 -562 193 -82 694 -329 837 -412 l83 -49 -108 -95 c-804 -703 -1772
-1192 -2834 -1432 -177 -40 -388 -80 -393 -75 -2 2 36 256 84 564 101 644 210
1365 272 1803 26 184 47 302 53 302 6 0 103 -20 216 -44z m-7366 -3391 c358
-268 695 -475 1105 -680 854 -427 1764 -687 2645 -755 77 -6 181 -15 230 -19
85 -8 842 -5 950 4 265 21 466 43 750 81 168 23 595 98 760 134 50 10 164 35
255 54 311 66 861 203 1535 381 388 103 420 111 645 169 570 147 1138 270
1369 297 130 16 380 16 468 1 102 -17 273 -76 273 -93 0 -5 -22 -34 -48 -66
-104 -126 -267 -356 -351 -495 -15 -25 -38 -45 -69 -59 -721 -329 -1515 -604
-2217 -769 -49 -12 -117 -27 -150 -35 -688 -162 -1671 -282 -2339 -285 -98 0
-182 -2 -185 -4 -11 -6 -601 13 -741 24 -253 20 -292 24 -485 46 -162 18 -523
74 -654 100 -479 96 -820 188 -1206 324 -961 339 -1754 823 -2457 1499 -107
102 -304 312 -268 285 8 -7 92 -69 185 -139z m14953 -2344 c241 -163 401 -284
627 -477 173 -147 510 -481 641 -634 596 -694 1032 -1467 1338 -2369 264 -777
411 -1565 478 -2561 17 -251 16 -910 -2 -1330 -18 -435 -19 -1076 -2 -1265 38
-400 126 -736 274 -1045 127 -265 253 -445 453 -645 77 -77 186 -174 243 -215
561 -410 1241 -525 1869 -315 354 118 679 349 894 635 433 578 475 1382 100
1927 -308 449 -809 646 -1290 507 -270 -79 -492 -255 -604 -480 -59 -118 -66
-215 -23 -307 55 -113 221 -162 344 -101 60 30 89 61 133 144 127 239 437 319
716 184 150 -72 260 -187 343 -358 86 -176 120 -370 101 -565 -57 -565 -464
-1002 -1051 -1128 -123 -26 -469 -26 -590 1 -508 111 -940 463 -1174 958 -133
281 -198 584 -215 996 -8 203 -4 413 19 962 6 151 12 340 13 420 l2 145 105
38 c221 81 514 144 785 167 170 15 479 8 655 -15 767 -101 1493 -452 2026
-980 1062 -1052 1399 -2736 865 -4325 -156 -463 -410 -952 -705 -1357 l-31
-43 -65 6 c-1279 110 -2539 657 -3570 1548 -141 122 -459 435 -580 571 -144
161 -349 416 -444 553 -124 179 -171 250 -243 367 -467 763 -752 1633 -922
2815 -57 391 -105 861 -186 1820 -65 767 -120 1260 -190 1687 -188 1151 -521
2090 -987 2782 -168 249 -386 507 -569 670 -52 47 -100 90 -108 97 -12 11 -3
31 62 128 96 143 185 303 234 418 20 48 41 88 46 88 4 0 88 -54 185 -119z
m-696 -803 c124 -146 318 -422 445 -633 368 -610 651 -1371 808 -2170 120
-612 172 -1074 260 -2290 50 -693 82 -1068 121 -1395 215 -1829 694 -3064
1615 -4166 932 -1117 2191 -1929 3557 -2294 201 -54 571 -132 720 -152 50 -7
92 -15 92 -18 0 -9 -305 -307 -400 -391 -959 -850 -2199 -1417 -3490 -1598
-479 -67 -1034 -87 -1473 -52 -94 7 -99 9 -135 44 -20 19 -91 66 -157 102
-480 268 -922 683 -1254 1178 -354 527 -601 1143 -741 1848 -83 418 -120 801
-127 1326 -12 869 55 1531 323 3188 180 1119 253 1668 299 2255 93 1208 -13
2271 -320 3195 -188 567 -430 1024 -752 1422 -46 57 -83 104 -83 106 0 2 57
47 128 99 152 114 317 256 427 367 44 45 82 81 86 81 4 0 27 -24 51 -52z
m-955 -805 c135 -208 162 -250 243 -392 204 -355 362 -741 489 -1189 83 -292
167 -742 196 -1042 4 -36 8 -81 10 -100 41 -387 41 -1112 0 -1585 -9 -97 -26
-290 -30 -325 -2 -19 -6 -64 -10 -100 -8 -81 -54 -448 -59 -476 -2 -12 -7 -45
-11 -74 -4 -29 -8 -61 -10 -70 -2 -9 -6 -41 -10 -71 -6 -53 -31 -213 -61 -399
-8 -52 -17 -106 -19 -120 -9 -57 -76 -457 -80 -480 -2 -14 -11 -68 -20 -120
-9 -52 -18 -106 -20 -120 -3 -14 -12 -68 -20 -120 -20 -124 -21 -130 -39 -235
-9 -49 -18 -108 -21 -130 -4 -22 -13 -78 -20 -125 -8 -47 -19 -114 -24 -150
-6 -36 -19 -126 -30 -200 -12 -74 -24 -155 -27 -180 -8 -64 -44 -330 -49 -360
-4 -30 -10 -77 -30 -265 -8 -77 -17 -158 -20 -180 -4 -35 -24 -272 -40 -473
-17 -230 -25 -745 -15 -1014 6 -161 13 -313 15 -338 2 -25 7 -76 10 -115 20
-228 66 -541 110 -760 30 -147 34 -161 60 -266 70 -275 142 -497 252 -769 80
-198 222 -496 297 -623 25 -43 46 -80 46 -82 0 -7 140 -227 208 -325 157 -229
333 -441 531 -638 73 -74 125 -132 115 -128 -11 3 -50 14 -89 25 -547 153
-1076 384 -1569 684 -898 546 -1671 1393 -2162 2367 -72 144 -164 338 -164
346 0 5 -26 66 -50 119 -126 275 -302 881 -364 1251 -9 49 -20 116 -26 149 -5
33 -19 141 -30 240 -85 779 -14 1506 219 2218 90 275 187 539 251 682 10 22
40 90 65 150 93 217 233 508 493 1030 145 292 286 575 312 630 26 55 81 170
122 255 223 461 418 952 527 1325 79 273 118 443 155 685 40 259 50 405 50
685 -1 464 -42 728 -183 1166 -9 26 -7 28 107 78 65 29 164 76 222 106 58 29
110 54 116 54 6 1 43 -47 81 -106z m12073 -586 c14 -3 50 -8 80 -11 134 -15
409 -73 448 -95 8 -5 -56 -33 -170 -76 -786 -294 -1436 -719 -2068 -1354 -316
-318 -546 -597 -812 -986 -90 -133 -190 -294 -292 -474 -58 -100 -233 -446
-263 -516 -12 -27 -45 -104 -73 -170 -100 -230 -200 -512 -272 -760 -22 -77
-43 -150 -46 -162 -7 -21 -11 -19 -102 36 -321 195 -680 353 -1015 446 -55 15
-101 29 -103 30 -2 2 19 47 47 101 27 55 93 203 145 331 384 928 771 1606
1234 2163 178 213 479 508 695 678 256 202 561 388 842 512 407 181 737 266
1210 314 52 5 482 -1 515 -7z m-28153 -12530 c147 -73 350 -168 451 -212 165
-72 207 -95 169 -95 -29 0 -338 -162 -452 -237 -255 -168 -484 -382 -655 -612
l-53 -71 -16 27 c-31 51 -69 147 -97 238 -24 81 -27 106 -28 250 -1 137 2 173
23 250 27 105 80 225 145 324 46 72 220 271 236 271 5 0 129 -60 277 -133z
m29673 -5272 c446 -54 849 -145 1195 -270 1158 -417 2060 -1187 2629 -2243
343 -639 543 -1382 572 -2127 11 -289 -15 -578 -106 -1156 -77 -493 -90 -605
-97 -840 -13 -465 65 -787 259 -1071 56 -83 193 -232 273 -299 90 -74 286
-176 430 -223 188 -62 447 -83 642 -51 480 78 888 435 1054 922 50 150 64 234
64 408 0 144 -3 170 -28 259 -28 103 -94 253 -150 341 -76 122 -218 270 -322
337 -211 134 -434 155 -639 58 -119 -56 -160 -116 -154 -220 5 -85 42 -151
110 -193 40 -25 62 -30 150 -37 62 -5 126 -17 160 -30 74 -27 171 -92 200
-133 12 -18 28 -38 36 -46 25 -26 63 -113 83 -189 23 -93 25 -226 3 -325 -20
-93 -99 -256 -161 -332 -103 -127 -273 -238 -428 -280 -96 -26 -245 -30 -349
-11 -325 62 -534 235 -632 524 -54 159 -68 259 -68 497 0 252 13 374 91 842
l57 341 181 61 c99 33 216 69 260 80 808 202 1713 9 2390 -509 670 -514 1110
-1344 1206 -2275 17 -169 15 -539 -5 -710 -50 -437 -173 -862 -366 -1272 -37
-78 -59 -113 -74 -118 -43 -13 -651 -18 -802 -6 -1230 98 -2372 623 -3223
1481 -480 485 -831 1042 -1140 1808 -151 375 -245 655 -505 1499 -306 993
-469 1432 -710 1913 -302 604 -681 1104 -1146 1514 -421 371 -924 617 -1332
652 l-77 7 -6 76 c-35 405 -123 947 -209 1280 l-25 94 287 -6 c172 -3 341 -12
422 -22z m-221 -1861 c734 -349 1241 -844 1686 -1648 284 -512 485 -1036 845
-2206 189 -615 308 -976 415 -1258 380 -1008 757 -1625 1365 -2232 682 -683
1489 -1157 2424 -1426 464 -133 900 -200 1388 -211 225 -5 246 -7 238 -22 -20
-38 -183 -248 -282 -363 -732 -855 -1863 -1513 -3148 -1833 -372 -92 -414 -99
-504 -86 -484 75 -907 260 -1316 577 -151 117 -449 415 -583 583 -452 568
-762 1222 -1021 2152 -97 350 -139 521 -287 1189 -287 1291 -443 1826 -704
2415 -318 719 -663 1221 -1108 1611 l-57 50 25 75 c70 202 173 591 231 866
107 512 152 933 161 1494 l6 377 46 -20 c25 -12 106 -49 180 -84z m-692 -3185
c350 -455 640 -1024 876 -1719 166 -487 273 -895 497 -1891 120 -536 127 -566
200 -858 254 -1013 516 -1695 883 -2301 201 -331 404 -589 681 -865 228 -228
416 -379 668 -537 l91 -58 -49 0 c-59 0 -325 17 -374 24 -19 3 -62 7 -95 11
-33 3 -71 7 -85 10 -14 2 -47 6 -75 10 -393 47 -904 189 -1300 361 -1045 453
-1921 1325 -2506 2494 -106 212 -255 552 -290 660 -4 14 -22 63 -39 110 -178
484 -350 1198 -415 1720 -3 25 -8 65 -11 90 -3 25 -7 56 -9 70 -14 95 -25 197
-30 266 -5 69 -3 84 13 105 88 115 414 626 535 839 229 405 356 652 511 997
58 129 187 442 212 511 10 29 23 51 29 49 5 -2 43 -46 82 -98z m-11082 -654
c161 -10 244 -13 535 -20 226 -6 282 -4 316 8 l42 14 8 -76 c4 -42 8 -78 9
-81 0 -3 4 -32 9 -65 12 -104 45 -285 77 -429 17 -76 27 -142 22 -146 -4 -4
-42 -17 -83 -30 -76 -22 -379 -136 -460 -172 -559 -251 -977 -549 -1309 -933
-360 -417 -581 -926 -632 -1457 l-12 -127 -31 16 c-114 59 -281 207 -376 334
-65 88 -146 241 -188 355 -69 186 -98 391 -89 624 11 273 58 456 188 728 195
409 519 763 969 1061 232 154 411 253 635 352 145 64 109 60 370 44z"/>
<path d="M16735 43623 c-51 -11 -183 -57 -219 -75 -130 -65 -277 -197 -289
-258 -14 -68 45 -140 114 -140 31 0 48 9 93 49 138 120 324 175 476 140 92
-21 172 -69 256 -153 70 -70 88 -96 131 -187 79 -165 126 -206 223 -197 60 6
81 23 110 91 41 95 24 227 -44 340 -109 180 -303 326 -501 377 -60 15 -108 20
-204 19 -69 -1 -135 -3 -146 -6z"/>
<path d="M14315 42294 c-48 -16 -82 -49 -91 -88 -5 -17 -8 -33 -9 -36 -1 -3
-5 -54 -9 -115 -23 -325 77 -719 280 -1105 60 -114 174 -290 247 -384 l46 -59
-38 -46 c-62 -73 -138 -142 -247 -224 -119 -91 -139 -120 -132 -200 8 -93 74
-164 162 -174 36 -4 58 1 110 25 122 57 215 138 319 277 32 44 61 82 63 84 2
2 31 -22 66 -54 89 -81 267 -212 373 -276 50 -29 92 -55 95 -57 2 -1 -10 -44
-28 -95 -17 -51 -36 -112 -41 -137 -27 -123 61 -216 188 -200 94 12 123 47
157 187 13 53 25 97 27 99 2 2 39 -9 83 -25 94 -34 276 -83 395 -106 l86 -17
-13 -82 c-18 -110 -18 -220 1 -256 52 -101 210 -118 264 -29 29 47 43 149 36
248 l-7 86 163 -3 c291 -6 551 30 869 120 287 81 513 207 570 319 26 50 26
140 1 194 -24 54 -101 120 -163 141 -89 29 -160 17 -333 -59 -210 -91 -395
-143 -630 -178 -134 -20 -473 -17 -614 5 -666 102 -1215 455 -1597 1028 -72
107 -181 315 -224 428 -53 138 -138 395 -200 609 -12 41 -29 85 -37 98 -33 50
-127 78 -188 57z"/>
<path d="M27705 40040 c-66 -14 -155 -48 -214 -82 -122 -73 -258 -241 -268
-334 -10 -82 50 -140 125 -123 26 6 53 27 103 81 98 108 188 151 318 150 91
-1 170 -33 241 -98 82 -76 109 -141 120 -290 13 -168 44 -221 142 -239 80 -15
159 45 191 146 35 108 13 298 -49 421 -119 238 -329 375 -573 376 -53 0 -114
-3 -136 -8z"/>
<path d="M24834 37577 c-25 -21 -28 -33 -37 -132 -18 -188 18 -338 143 -593
80 -164 146 -273 247 -405 41 -54 73 -100 71 -101 -21 -13 -171 -137 -236
-194 -95 -85 -114 -116 -114 -184 2 -135 143 -221 268 -162 30 14 152 164 243
297 l33 48 67 -63 c204 -193 513 -385 769 -479 70 -25 92 -38 88 -49 -2 -8
-27 -67 -55 -130 -97 -221 -102 -292 -27 -366 66 -67 181 -84 244 -37 44 33
101 172 151 367 12 44 23 81 25 84 3 2 46 -3 96 -12 49 -10 134 -20 188 -24
185 -13 514 -6 608 14 l31 6 5 -204 c4 -188 6 -207 27 -252 38 -78 127 -119
208 -97 64 17 102 47 125 99 18 39 19 58 13 136 -8 109 -30 250 -50 326 -8 30
-15 56 -15 58 0 1 6 2 13 2 36 0 316 98 414 146 162 78 245 167 267 286 17 94
-32 191 -122 241 -48 27 -63 30 -135 29 -96 0 -133 -12 -332 -105 -193 -89
-374 -140 -600 -168 -142 -17 -446 -14 -555 6 -14 2 -45 7 -70 10 -418 56
-903 317 -1230 661 -160 169 -267 320 -418 589 -94 167 -200 324 -241 356 -32
26 -74 24 -107 -4z"/>
<path d="M19775 36838 c-15 -12 -41 -51 -57 -87 -78 -175 -73 -324 14 -408 91
-88 200 -81 265 16 20 30 23 46 23 140 0 108 -23 229 -54 290 -35 66 -136 93
-191 49z"/>
<path d="M20555 36454 c-60 -43 -128 -97 -151 -121 -45 -46 -74 -114 -74 -173
0 -49 38 -120 79 -147 100 -67 214 -46 300 54 67 78 171 261 171 300 0 46 -21
92 -59 128 -26 24 -41 30 -94 33 l-62 4 -110 -78z"/>
<path d="M20341 35483 c-31 -25 -42 -83 -24 -121 14 -29 118 -134 176 -180
l29 -21 -52 -115 c-78 -173 -164 -268 -306 -336 -119 -57 -239 -73 -349 -45
-111 29 -183 71 -275 164 -118 118 -169 222 -206 418 -10 48 -25 104 -35 124
-49 100 -236 89 -296 -16 -29 -51 -47 -187 -39 -284 35 -395 369 -764 779
-861 65 -15 110 -18 217 -16 171 4 289 34 446 111 278 135 457 337 529 594
l20 74 82 -2 c99 -3 151 12 203 56 65 56 67 143 4 213 -47 52 -111 74 -254 90
-138 15 -320 63 -470 125 -122 50 -147 53 -179 28z"/>
</g>
</svg>
